<?xml version="1.0" standalone="no"?>
<!DOCTYPE svg PUBLIC "-//W3C//DTD SVG 20010904//EN"
 "http://www.w3.org/TR/2001/REC-SVG-20010904/DTD/svg10.dtd">
<svg version="1.0" xmlns="http://www.w3.org/2000/svg"
 width="900.000000pt" height="520.000000pt" viewBox="0 0 900.000000 520.000000"
 preserveAspectRatio="xMidYMid meet">

<g transform="translate(0.000000,520.000000) scale(0.100000,-0.100000)"
fill="#000000" stroke="none">
<path d="M4240 4515 c-130 -19 -234 -44 -356 -86 -276 -95 -493 -229 -708
-438 -301 -294 -492 -669 -551 -1089 -14 -97 -16 -164 -12 -320 5 -206 11
-252 53 -417 117 -458 411 -864 814 -1125 213 -138 518 -247 779 -281 124 -15
405 -12 522 6 273 43 561 154 771 296 428 291 719 735 815 1244 21 113 29 432
13 564 -98 846 -778 1535 -1623 1646 -139 18 -395 18 -517 0z m784 -771 c8
-20 8 -312 0 -341 -6 -22 -10 -23 -125 -23 -134 0 -174 -11 -204 -56 -17 -25
-20 -47 -20 -159 l0 -130 165 -3 c90 -1 168 -6 172 -10 5 -5 1 -89 -8 -188
-13 -138 -20 -182 -33 -192 -11 -9 -54 -12 -149 -11 -73 0 -136 -1 -139 -4 -3
-3 -5 -254 -6 -557 0 -493 -2 -552 -16 -559 -17 -8 -437 -8 -445 0 -2 2 -7
253 -10 557 -3 305 -9 558 -12 563 -3 5 -54 9 -115 9 l-109 0 0 190 0 190 26
6 c14 4 61 4 104 1 42 -3 83 -1 91 3 10 7 14 50 15 184 3 239 26 317 127 423
54 57 126 98 197 112 25 5 145 9 266 10 194 1 223 -1 228 -15z"/>
</g>
</svg>
